<svg width="32" height="32" viewBox="0 0 32 32" fill="none" xmlns="http://www.w3.org/2000/svg">
<path fill-rule="evenodd" clip-rule="evenodd" d="M16 2.46961V8.3536C16 9.3039 17.149 9.77981 17.8209 9.10785L25.4962 1.43252C26.4202 0.508568 28 1.16295 28 2.46961V27.4621C28 28.9349 26.8061 30.1288 25.3333 30.1288H6.66667C5.19391 30.1288 4 28.9349 4 27.4621V12.4752C4 11.485 4.39333 10.5354 5.09347 9.83529L13.4962 1.43252C14.4202 0.508568 16 1.16295 16 2.46961ZM18.9333 19.4621V17.3288C18.9333 16.0033 17.8588 14.9288 16.5333 14.9288C15.2079 14.9288 14.1333 16.0033 14.1333 17.3288V19.4621C14.1333 20.7876 15.2079 21.8621 16.5333 21.8621C17.8588 21.8621 18.9333 20.7876 18.9333 19.4621ZM12 17.3288V19.4621C12 20.7876 10.9255 21.8621 9.6 21.8621C8.27452 21.8621 7.2 20.7876 7.2 19.4621V17.3288C7.2 16.0033 8.27452 14.9288 9.6 14.9288C10.9255 14.9288 12 16.0033 12 17.3288Z" fill="white"/>
</svg>
